<svg width="31" height="29" viewBox="0 0 31 29" fill="none" xmlns="http://www.w3.org/2000/svg">
<g clip-path="url(#clip0_20725_974)">
<path d="M19.2801 14.2323L7.45557 12.1323V27.6492C7.45557 28.3579 8.02638 28.9323 8.73053 28.9323H29.1341C29.8382 28.9323 30.4091 28.3579 30.4091 27.6492V21.9323L19.2801 14.2323Z" fill="#1D7043"/>
<path d="M19.2802 0.932617H8.73059C8.02644 0.932617 7.45563 1.50708 7.45563 2.21571V7.93262L19.2802 14.9326L25.5402 17.0326L30.4091 14.9326V7.93262L19.2802 0.932617Z" fill="#25B874"/>
<path d="M7.45563 7.93262H19.2802V14.9326H7.45563V7.93262Z" fill="#13934C"/>
<path opacity="0.1" d="M15.9185 6.5332H7.45557V24.0332H15.9185C16.6216 24.0309 17.1911 23.4578 17.1934 22.7501V7.8163C17.1911 7.10862 16.6216 6.5355 15.9185 6.5332Z" fill="white"/>
<path opacity="0.2" d="M15.2229 7.23291H7.45557V24.7329H15.2229C15.9261 24.7306 16.4956 24.1575 16.4978 23.4498V8.51601C16.4956 7.80833 15.9261 7.23521 15.2229 7.23291Z" fill="white"/>
<path opacity="0.2" d="M15.2229 7.23291H7.45557V23.3329H15.2229C15.9261 23.3306 16.4956 22.7575 16.4978 22.0498V8.51601C16.4956 7.80833 15.9261 7.23521 15.2229 7.23291Z" fill="white"/>
<path opacity="0.2" d="M14.5273 7.23291H7.45557V23.3329H14.5273C15.2305 23.3306 15.8 22.7575 15.8023 22.0498V8.51601C15.8 7.80833 15.2305 7.23521 14.5273 7.23291Z" fill="white"/>
<path d="M1.77496 7.23291H14.5274C15.2315 7.23291 15.8023 7.80737 15.8023 8.51601V21.3498C15.8023 22.0584 15.2315 22.6329 14.5274 22.6329H1.77496C1.07082 22.6329 0.5 22.0584 0.5 21.3498V8.51601C0.5 7.80737 1.07082 7.23291 1.77496 7.23291Z" fill="url(#paint0_linear_20725_974)"/>
<path d="M4.44867 19.1031L7.13075 14.9206L4.67334 10.7612H6.65011L7.99115 13.4212C8.11497 13.6739 8.19982 13.8615 8.24574 13.9854H8.26312C8.35123 13.7838 8.44397 13.5881 8.54135 13.3981L9.97489 10.7626H11.7896L9.26959 14.8975L11.8536 19.1031H9.92274L8.37372 16.1834C8.30075 16.0592 8.23884 15.9287 8.18871 15.7935H8.16576C8.12038 15.926 8.06018 16.0528 7.9863 16.1715L6.39138 19.1031H4.44867Z" fill="#0D0D0D"/>
<path d="M29.1342 0.932617H19.2802V7.93262H30.4091V2.21571C30.4091 1.50708 29.8383 0.932617 29.1342 0.932617Z" fill="#43CE8D"/>
<path d="M19.2802 14.9326H30.4091V21.9326H19.2802V14.9326Z" fill="#13934C"/>
</g>
<defs>
<linearGradient id="paint0_linear_20725_974" x1="3.15832" y1="6.23032" x2="13.2396" y2="23.5799" gradientUnits="userSpaceOnUse">
<stop stop-color="#18884F"/>
<stop offset="0.5" stop-color="#117E43"/>
<stop offset="1" stop-color="#0B6631"/>
</linearGradient>
<clipPath id="clip0_20725_974">
<rect width="29.9091" height="28" fill="white" transform="translate(0.5 0.932617)"/>
</clipPath>
</defs>
</svg>
